<svg width="1440" height="88" viewBox="0 0 1440 88" fill="none" xmlns="http://www.w3.org/2000/svg">
<g clip-path="url(#clip0_1_860)">
<path d="M196.324 48.7217C196.324 50.7018 196.067 52.4891 195.552 54.0835C195.064 55.6522 194.408 57.0409 193.585 58.2495C192.762 59.4582 191.798 60.4868 190.692 61.3354C189.586 62.1841 188.442 62.8784 187.259 63.4185C186.076 63.9585 184.867 64.3571 183.633 64.6143C182.424 64.8714 181.28 65 180.2 65H141.51V54.9707H180.2C182.128 54.9707 183.62 54.4049 184.674 53.2734C185.754 52.1419 186.294 50.6247 186.294 48.7217C186.294 47.7959 186.153 46.9473 185.87 46.1758C185.587 45.4043 185.176 44.7357 184.636 44.1699C184.121 43.6042 183.479 43.167 182.707 42.8584C181.961 42.5498 181.125 42.3955 180.2 42.3955H157.132C155.512 42.3955 153.764 42.1126 151.886 41.5469C150.009 40.9554 148.26 40.0168 146.64 38.731C145.046 37.4451 143.708 35.7607 142.628 33.6777C141.574 31.5947 141.047 29.0488 141.047 26.04C141.047 23.0312 141.574 20.4982 142.628 18.4409C143.708 16.3579 145.046 14.6735 146.64 13.3877C148.26 12.0762 150.009 11.1375 151.886 10.5718C153.764 9.98031 155.512 9.68457 157.132 9.68457H191.271V19.7139H157.132C155.229 19.7139 153.738 20.2925 152.658 21.4497C151.603 22.6069 151.076 24.137 151.076 26.04C151.076 27.9688 151.603 29.4989 152.658 30.6304C153.738 31.7362 155.229 32.2891 157.132 32.2891H180.2H180.277C181.357 32.3148 182.501 32.4691 183.71 32.752C184.919 33.0091 186.114 33.4206 187.297 33.9863C188.506 34.5521 189.65 35.2721 190.73 36.1465C191.811 36.9951 192.762 38.0238 193.585 39.2324C194.434 40.4411 195.102 41.8298 195.591 43.3984C196.079 44.9671 196.324 46.7415 196.324 48.7217Z" fill="white"/>
<path d="M135.762 19.7139H113.659V65H103.63V19.7139H81.4883V9.68457H135.762V19.7139Z" fill="white"/>
<path d="M78.0552 48.7217C78.0552 50.7018 77.798 52.4891 77.2837 54.0835C76.7951 55.6522 76.1393 57.0409 75.3164 58.2495C74.4935 59.4582 73.5291 60.4868 72.4233 61.3354C71.3175 62.1841 70.1732 62.8784 68.9902 63.4185C67.8073 63.9585 66.5986 64.3571 65.3643 64.6143C64.1556 64.8714 63.0112 65 61.9312 65H23.2412V54.9707H61.9312C63.8599 54.9707 65.3514 54.4049 66.4058 53.2734C67.4858 52.1419 68.0259 50.6247 68.0259 48.7217C68.0259 47.7959 67.8844 46.9473 67.6016 46.1758C67.3187 45.4043 66.9072 44.7357 66.3672 44.1699C65.8529 43.6042 65.21 43.167 64.4385 42.8584C63.6927 42.5498 62.8569 42.3955 61.9312 42.3955H38.8638C37.2437 42.3955 35.495 42.1126 33.6177 41.5469C31.7404 40.9554 29.9917 40.0168 28.3716 38.731C26.7772 37.4451 25.4399 35.7607 24.3599 33.6777C23.3055 31.5947 22.7783 29.0488 22.7783 26.04C22.7783 23.0312 23.3055 20.4982 24.3599 18.4409C25.4399 16.3579 26.7772 14.6735 28.3716 13.3877C29.9917 12.0762 31.7404 11.1375 33.6177 10.5718C35.495 9.98031 37.2437 9.68457 38.8638 9.68457H73.002V19.7139H38.8638C36.9608 19.7139 35.4692 20.2925 34.3892 21.4497C33.3348 22.6069 32.8076 24.137 32.8076 26.04C32.8076 27.9688 33.3348 29.4989 34.3892 30.6304C35.4692 31.7362 36.9608 32.2891 38.8638 32.2891H61.9312H62.0083C63.0884 32.3148 64.2327 32.4691 65.4414 32.752C66.6501 33.0091 67.8459 33.4206 69.0288 33.9863C70.2375 34.5521 71.3818 35.2721 72.4619 36.1465C73.542 36.9951 74.4935 38.0238 75.3164 39.2324C76.165 40.4411 76.8337 41.8298 77.3223 43.3984C77.8109 44.9671 78.0552 46.7415 78.0552 48.7217Z" fill="white"/>
<path d="M13.1733 65H3.14404V9.68457H13.1733V65Z" fill="white"/>
<path d="M984.324 48.7217C984.324 50.7018 984.067 52.4891 983.552 54.0835C983.064 55.6522 982.408 57.0409 981.585 58.2495C980.762 59.4582 979.798 60.4868 978.692 61.3354C977.586 62.1841 976.442 62.8784 975.259 63.4185C974.076 63.9585 972.867 64.3571 971.633 64.6143C970.424 64.8714 969.28 65 968.2 65H929.51V54.9707H968.2C970.128 54.9707 971.62 54.4049 972.674 53.2734C973.754 52.1419 974.294 50.6247 974.294 48.7217C974.294 47.7959 974.153 46.9473 973.87 46.1758C973.587 45.4043 973.176 44.7357 972.636 44.1699C972.121 43.6042 971.479 43.167 970.707 42.8584C969.961 42.5498 969.125 42.3955 968.2 42.3955H945.132C943.512 42.3955 941.764 42.1126 939.886 41.5469C938.009 40.9554 936.26 40.0168 934.64 38.731C933.046 37.4451 931.708 35.7607 930.628 33.6777C929.574 31.5947 929.047 29.0488 929.047 26.04C929.047 23.0312 929.574 20.4982 930.628 18.4409C931.708 16.3579 933.046 14.6735 934.64 13.3877C936.26 12.0762 938.009 11.1375 939.886 10.5718C941.764 9.98031 943.512 9.68457 945.132 9.68457H979.271V19.7139H945.132C943.229 19.7139 941.738 20.2925 940.658 21.4497C939.603 22.6069 939.076 24.137 939.076 26.04C939.076 27.9688 939.603 29.4989 940.658 30.6304C941.738 31.7362 943.229 32.2891 945.132 32.2891H968.2H968.277C969.357 32.3148 970.501 32.4691 971.71 32.752C972.919 33.0091 974.114 33.4206 975.297 33.9863C976.506 34.5521 977.65 35.2721 978.73 36.1465C979.811 36.9951 980.762 38.0238 981.585 39.2324C982.434 40.4411 983.102 41.8298 983.591 43.3984C984.079 44.9671 984.324 46.7415 984.324 48.7217Z" fill="white"/>
<path d="M923.762 19.7139H901.659V65H891.63V19.7139H869.488V9.68457H923.762V19.7139Z" fill="white"/>
<path d="M866.055 48.7217C866.055 50.7018 865.798 52.4891 865.284 54.0835C864.795 55.6522 864.139 57.0409 863.316 58.2495C862.493 59.4582 861.529 60.4868 860.423 61.3354C859.318 62.1841 858.173 62.8784 856.99 63.4185C855.807 63.9585 854.599 64.3571 853.364 64.6143C852.156 64.8714 851.011 65 849.931 65H811.241V54.9707H849.931C851.86 54.9707 853.351 54.4049 854.406 53.2734C855.486 52.1419 856.026 50.6247 856.026 48.7217C856.026 47.7959 855.884 46.9473 855.602 46.1758C855.319 45.4043 854.907 44.7357 854.367 44.1699C853.853 43.6042 853.21 43.167 852.438 42.8584C851.693 42.5498 850.857 42.3955 849.931 42.3955H826.864C825.244 42.3955 823.495 42.1126 821.618 41.5469C819.74 40.9554 817.992 40.0168 816.372 38.731C814.777 37.4451 813.44 35.7607 812.36 33.6777C811.306 31.5947 810.778 29.0488 810.778 26.04C810.778 23.0312 811.306 20.4982 812.36 18.4409C813.44 16.3579 814.777 14.6735 816.372 13.3877C817.992 12.0762 819.74 11.1375 821.618 10.5718C823.495 9.98031 825.244 9.68457 826.864 9.68457H861.002V19.7139H826.864C824.961 19.7139 823.469 20.2925 822.389 21.4497C821.335 22.6069 820.808 24.137 820.808 26.04C820.808 27.9688 821.335 29.4989 822.389 30.6304C823.469 31.7362 824.961 32.2891 826.864 32.2891H849.931H850.008C851.088 32.3148 852.233 32.4691 853.441 32.752C854.65 33.0091 855.846 33.4206 857.029 33.9863C858.237 34.5521 859.382 35.2721 860.462 36.1465C861.542 36.9951 862.493 38.0238 863.316 39.2324C864.165 40.4411 864.834 41.8298 865.322 43.3984C865.811 44.9671 866.055 46.7415 866.055 48.7217Z" fill="white"/>
<path d="M801.173 65H791.144V9.68457H801.173V65Z" fill="white"/>
<path d="M783.661 19.7139H761.558V65H751.528V19.7139H729.387V9.68457H783.661V19.7139Z" fill="white"/>
<path d="M724.063 28.2773C724.063 30.5661 723.781 32.6105 723.215 34.4106C722.649 36.2108 721.878 37.8052 720.9 39.1938C719.949 40.5568 718.843 41.7269 717.583 42.7041C716.323 43.6813 714.999 44.4914 713.61 45.1343C712.247 45.7515 710.858 46.2015 709.444 46.4844C708.055 46.7673 706.744 46.9087 705.509 46.9087L726.455 65H710.948L690.041 46.9087H682.828V36.8794H705.509C706.769 36.7765 707.914 36.5194 708.942 36.1079C709.997 35.6707 710.897 35.0921 711.643 34.3721C712.414 33.652 713.006 32.7905 713.417 31.7876C713.828 30.759 714.034 29.5889 714.034 28.2773V21.9512C714.034 21.3854 713.957 20.9611 713.803 20.6782C713.674 20.3696 713.494 20.151 713.263 20.0225C713.057 19.8682 712.826 19.7782 712.568 19.7524C712.337 19.7267 712.118 19.7139 711.913 19.7139H678.816V65H668.787V14.7378C668.787 14.0435 668.915 13.3877 669.172 12.7705C669.43 12.1533 669.777 11.6133 670.214 11.1504C670.677 10.6875 671.217 10.3275 671.834 10.0703C672.451 9.81315 673.12 9.68457 673.84 9.68457H711.913C714.15 9.68457 716.04 10.096 717.583 10.9189C719.126 11.7161 720.373 12.7319 721.325 13.9663C722.302 15.175 722.996 16.4865 723.408 17.9009C723.845 19.3153 724.063 20.6396 724.063 21.874V28.2773Z" fill="white"/>
<path d="M657.099 65H647.069V51.4219H611.812V65H601.783V37.3423C601.783 33.3049 602.478 29.5889 603.866 26.1943C605.255 22.7998 607.184 19.881 609.652 17.438C612.121 14.995 615.04 13.092 618.409 11.729C621.778 10.366 625.455 9.68457 629.441 9.68457H652.045C652.74 9.68457 653.396 9.81315 654.013 10.0703C654.63 10.3275 655.17 10.6875 655.633 11.1504C656.096 11.6133 656.456 12.1533 656.713 12.7705C656.97 13.3877 657.099 14.0435 657.099 14.7378V65ZM611.812 41.3926H647.069V19.7139H629.441C629.132 19.7139 628.477 19.7653 627.474 19.8682C626.496 19.9453 625.352 20.1639 624.041 20.5239C622.755 20.884 621.392 21.4368 619.952 22.1826C618.512 22.9284 617.187 23.957 615.979 25.2686C614.77 26.5801 613.767 28.2259 612.97 30.2061C612.198 32.1605 611.812 34.5392 611.812 37.3423V41.3926Z" fill="white"/>
<path d="M1445.1 65H1435.07V51.4219H1399.81V65H1389.78V37.3423C1389.78 33.3049 1390.48 29.5889 1391.87 26.1943C1393.25 22.7998 1395.18 19.881 1397.65 17.438C1400.12 14.995 1403.04 13.092 1406.41 11.729C1409.78 10.366 1413.45 9.68457 1417.44 9.68457H1440.05C1440.74 9.68457 1441.4 9.81315 1442.01 10.0703C1442.63 10.3275 1443.17 10.6875 1443.63 11.1504C1444.1 11.6133 1444.46 12.1533 1444.71 12.7705C1444.97 13.3877 1445.1 14.0435 1445.1 14.7378V65ZM1399.81 41.3926H1435.07V19.7139H1417.44C1417.13 19.7139 1416.48 19.7653 1415.47 19.8682C1414.5 19.9453 1413.35 20.1639 1412.04 20.5239C1410.75 20.884 1409.39 21.4368 1407.95 22.1826C1406.51 22.9284 1405.19 23.957 1403.98 25.2686C1402.77 26.5801 1401.77 28.2259 1400.97 30.2061C1400.2 32.1605 1399.81 34.5392 1399.81 37.3423V41.3926Z" fill="white"/>
</g>
<defs>
<clipPath id="clip0_1_860">
<rect width="1440" height="88" fill="white"/>
</clipPath>
</defs>
</svg>
